<svg width="73" height="19" viewBox="0 0 73 19" fill="none" xmlns="http://www.w3.org/2000/svg">
<path d="M9.896 1.32V13.344C9.896 14.832 9.44 16.008 8.528 16.872C7.632 17.736 6.448 18.168 4.976 18.168C3.504 18.168 2.312 17.736 1.4 16.872C0.504 16.008 0.0560001 14.832 0.0560001 13.344H2.816C2.832 14.08 3.016 14.664 3.368 15.096C3.736 15.528 4.272 15.744 4.976 15.744C5.68 15.744 6.216 15.528 6.584 15.096C6.952 14.648 7.136 14.064 7.136 13.344V1.32H9.896ZM26.4669 11.064C26.4669 11.56 26.4349 12.008 26.3709 12.408H16.2669C16.3469 13.464 16.7389 14.312 17.4429 14.952C18.1469 15.592 19.0109 15.912 20.0349 15.912C21.5069 15.912 22.5469 15.296 23.1549 14.064H26.1069C25.7069 15.28 24.9789 16.28 23.9229 17.064C22.8829 17.832 21.5869 18.216 20.0349 18.216C18.7709 18.216 17.6349 17.936 16.6269 17.376C15.6349 16.8 14.8509 16 14.2749 14.976C13.7149 13.936 13.4349 12.736 13.4349 11.376C13.4349 10.016 13.7069 8.824 14.2509 7.8C14.8109 6.76 15.5869 5.96 16.5789 5.4C17.5869 4.84 18.7389 4.56 20.0349 4.56C21.2829 4.56 22.3949 4.832 23.3709 5.376C24.3469 5.92 25.1069 6.688 25.6509 7.68C26.1949 8.656 26.4669 9.784 26.4669 11.064ZM23.6109 10.2C23.5949 9.192 23.2349 8.384 22.5309 7.776C21.8269 7.168 20.9549 6.864 19.9149 6.864C18.9709 6.864 18.1629 7.168 17.4909 7.776C16.8189 8.368 16.4189 9.176 16.2909 10.2H23.6109ZM46.9194 4.776L42.8154 18H39.9354L37.2714 8.232L34.6074 18H31.7274L27.5994 4.776H30.3834L33.1434 15.408L35.9514 4.776H38.8074L41.4954 15.36L44.2314 4.776H46.9194ZM61.0841 11.064C61.0841 11.56 61.0521 12.008 60.9881 12.408H50.8841C50.9641 13.464 51.3561 14.312 52.0601 14.952C52.7641 15.592 53.6281 15.912 54.6521 15.912C56.1241 15.912 57.1641 15.296 57.7721 14.064H60.7241C60.3241 15.28 59.5961 16.28 58.5401 17.064C57.5001 17.832 56.2041 18.216 54.6521 18.216C53.3881 18.216 52.2521 17.936 51.2441 17.376C50.2521 16.8 49.4681 16 48.8921 14.976C48.3321 13.936 48.0521 12.736 48.0521 11.376C48.0521 10.016 48.3241 8.824 48.8681 7.8C49.4281 6.76 50.2041 5.96 51.1961 5.4C52.2041 4.84 53.3561 4.56 54.6521 4.56C55.9001 4.56 57.0121 4.832 57.9881 5.376C58.9641 5.92 59.7241 6.688 60.2681 7.68C60.8121 8.656 61.0841 9.784 61.0841 11.064ZM58.2281 10.2C58.2121 9.192 57.8521 8.384 57.1481 7.776C56.4441 7.168 55.5721 6.864 54.5321 6.864C53.5881 6.864 52.7801 7.168 52.1081 7.776C51.4361 8.368 51.0361 9.176 50.9081 10.2H58.2281ZM66.5126 0.24V18H63.7766V0.24H66.5126ZM72.8407 0.24V18H70.1047V0.24H72.8407Z" fill="white"/>
</svg>
